<svg width="652" height="200" viewBox="0 0 652 200" fill="none" xmlns="http://www.w3.org/2000/svg">
<path d="M248.237 172.632V105.472H273.374C281.881 105.472 288.565 107.519 293.426 111.613C298.351 115.642 300.813 121.271 300.813 128.498C300.813 133.232 299.694 137.325 297.455 140.779C295.281 144.169 292.147 146.791 288.053 148.646C283.96 150.437 279.067 151.333 273.374 151.333H252.171L255.337 148.071V172.632H248.237ZM294.097 172.632L276.828 148.262H284.503L301.869 172.632H294.097ZM255.337 148.646L252.171 145.288H273.182C279.898 145.288 284.983 143.817 288.437 140.875C291.955 137.933 293.714 133.807 293.714 128.498C293.714 123.126 291.955 118.968 288.437 116.026C284.983 113.084 279.898 111.613 273.182 111.613H252.171L255.337 108.255V148.646ZM317.57 172.632V105.472H363.622V111.613H324.67V172.632H317.57ZM323.902 144.137V137.997H359.401V144.137H323.902Z" fill="#FF851B"/>
<path d="M240.946 98.0104V87.9365L282.488 37.855L284.407 43.5155H241.713V30.8513H298.223V40.9251L256.776 91.0066L254.857 85.3461H299.662V98.0104H240.946ZM341.594 99.1617C336.286 99.1617 331.361 98.2982 326.819 96.5712C322.342 94.8443 318.441 92.4138 315.115 89.2797C311.853 86.1456 309.294 82.4678 307.439 78.2464C305.648 74.025 304.753 69.4198 304.753 64.4308C304.753 59.4418 305.648 54.8367 307.439 50.6152C309.294 46.3938 311.885 42.716 315.211 39.5819C318.537 36.4479 322.438 34.0173 326.915 32.2904C331.393 30.5634 336.254 29.7 341.499 29.7C346.807 29.7 351.668 30.5634 356.082 32.2904C360.559 34.0173 364.429 36.4479 367.691 39.5819C371.017 42.716 373.607 46.3938 375.462 50.6152C377.317 54.7727 378.244 59.3779 378.244 64.4308C378.244 69.4198 377.317 74.0569 375.462 78.3423C373.607 82.5638 371.017 86.2415 367.691 89.3756C364.429 92.4457 360.559 94.8443 356.082 96.5712C351.668 98.2982 346.839 99.1617 341.594 99.1617ZM341.499 85.9217C344.505 85.9217 347.255 85.41 349.749 84.3867C352.308 83.3633 354.547 81.8922 356.465 79.9733C358.384 78.0545 359.855 75.7839 360.879 73.1615C361.966 70.5391 362.51 67.6289 362.51 64.4308C362.51 61.2328 361.966 58.3225 360.879 55.7001C359.855 53.0777 358.384 50.8071 356.465 48.8883C354.611 46.9694 352.404 45.4983 349.845 44.475C347.287 43.4516 344.505 42.9399 341.499 42.9399C338.492 42.9399 335.71 43.4516 333.152 44.475C330.657 45.4983 328.45 46.9694 326.532 48.8883C324.613 50.8071 323.11 53.0777 322.022 55.7001C320.999 58.3225 320.487 61.2328 320.487 64.4308C320.487 67.5649 320.999 70.4751 322.022 73.1615C323.11 75.7839 324.581 78.0545 326.436 79.9733C328.355 81.8922 330.593 83.3633 333.152 84.3867C335.71 85.41 338.492 85.9217 341.499 85.9217ZM389.925 98.0104V30.8513H418.612C427.95 30.8513 435.209 33.0259 440.39 37.3753C445.571 41.6607 448.162 47.6091 448.162 55.2204C448.162 60.2094 446.978 64.5268 444.612 68.1725C442.245 71.7543 438.887 74.5047 434.538 76.4235C430.188 78.3423 425.008 79.3018 418.995 79.3018H398.56L405.468 72.4899V98.0104H389.925ZM432.619 98.0104L415.829 73.6412H432.427L449.409 98.0104H432.619ZM405.468 74.2168L398.56 66.9253H418.132C422.929 66.9253 426.511 65.9019 428.877 63.8552C431.244 61.7444 432.427 58.8662 432.427 55.2204C432.427 51.5107 431.244 48.6324 428.877 46.5857C426.511 44.5389 422.929 43.5155 418.132 43.5155H398.56L405.468 36.128V74.2168ZM456.158 98.0104V87.9365L497.701 37.855L499.62 43.5155H456.926V30.8513H513.436V40.9251L471.989 91.0066L470.07 85.3461H514.875V98.0104H456.158ZM516.016 98.0104L545.95 30.8513H561.301L591.33 98.0104H575.02L550.459 38.7185H556.6L531.943 98.0104H516.016ZM530.983 83.6191L535.109 71.8183H569.648L573.869 83.6191H530.983ZM598.298 98.0104V30.8513H613.841V85.3461H647.516V98.0104H598.298Z" fill="#E0E0E0"/>
<g filter="url(#filter0_d_49_5)">
<path d="M217.634 115.062C219.431 110.771 220.19 105.829 220.692 101.202C221.412 95.5841 221.625 89.4161 221.329 83.667C220.975 78.5554 220.151 73.9369 219.209 69.0479C218.105 63.3949 217.242 57.5149 215.798 52.0409C214.132 46.0867 213.944 39.4909 213.547 33.3403C212.989 26.0154 199.314 30.2322 195.423 31.4676C185.242 34.7284 172.544 42.5771 166.774 56.2403C159.855 73.4917 163.703 94.4055 181.718 106.467C187.166 110.229 193.155 112.818 198.651 114.464C206.642 116.729 216.225 118.135 217.621 115.101L217.643 115.062H217.634Z" fill="#F3E8C2"/>
<path d="M147.803 159.203L155.995 159.09L173.805 190.463L192.239 190.519L193.373 190.973L194.398 191.659L195.253 192.283L196.448 193.365L197.416 194.732L197.87 195.814L197.983 196.954H164.758L164.985 193.025L165.892 191.829L166.917 190.69L167.201 190.118L166.521 188.922L147.803 159.203Z" fill="#252727"/>
<path d="M114.404 152.371L124.135 155.445L139.782 190.463L154.002 190.746L155.424 191.886L157.644 193.479L158.953 195.242L159.637 196.954L116.51 196.836L116.624 195.701L118.046 194.217L119.695 192.68L122.028 191.143L123.053 190.803L126.696 190.519L133.579 190.406L114.404 152.371Z" fill="#242524"/>
<path d="M178.42 71.0253C182.058 72.8631 184.858 76.3858 187.689 79.3105C195.628 88.4601 200.535 99.491 208.945 108.318C210.324 109.797 211.536 111.107 213.198 111.976C216.675 113.744 219.309 112.822 216.971 117.847C215.519 121.204 214.193 123.976 212.906 126.534C212.06 128.101 212.047 128.481 210.747 130.214C208.854 132.667 207.275 135.513 204.967 137.578C202.328 139.952 199.798 142.716 197.011 144.78C194.76 146.334 192.134 148.556 189.643 149.844C186.682 151.503 183.825 152.834 180.509 154.017C177.347 155.344 174.376 156.174 171.04 157.007C158.189 160.172 142.037 159.784 129.841 156.75C117.884 153.969 108.114 149.761 96.284 147.596C87.5557 145.941 77.859 145.492 69.2266 145.47C56.5507 142.829 155.655 77.6561 177.264 70.6456C177.652 70.615 177.849 70.7634 178.372 70.9904L178.42 71.0122V71.0253Z" fill="#F57A01"/>
<path d="M2.92887 186.796C9.10107 186.591 16.1195 185.848 21.1052 181.99C33.7375 172.491 57.4929 154.982 71.8394 144.051C75.3552 141.45 79.0629 137.774 83.1064 136.032C92.2099 132.994 101.88 130.702 109.806 128.11C118.918 125.316 128.27 122.295 137.125 118.716C147.197 114.634 154.569 111.229 162.896 105.284C167.175 101.931 170.481 98.0461 173.892 93.2269C177.111 88.6521 179.231 83.8635 179.511 78.3546C179.537 73.9369 177.94 77.8875 176.536 80.3407C170.15 91.1098 160.008 98.6922 150.368 104.668C145.391 107.628 137.47 112.338 135.825 111.522C135.673 111.316 135.769 110.884 136.083 110.256C136.541 109.322 137.383 108.125 138.059 107.161C139.847 104.681 141.653 102.315 142.892 99.4823C143.603 97.8366 144.196 96.0119 143.119 96.3568C141.679 97.0989 140.008 99.1418 138.595 100.482C136.85 102.237 135.005 103.887 133.099 105.393C126.7 110.36 119.446 114.521 111.817 117.371C107.154 119.017 111.08 115.228 112.401 114.01C114.356 112.198 116.471 110.461 118.39 107.92C120.388 105.34 121.98 101.883 122.844 99.1462C123.128 98.1858 124.441 94.3401 122.748 95.0516C121.618 95.606 119.28 98.26 117.723 99.6002C112.323 104.472 105.876 109.208 99.7735 113.49C87.7694 121.78 79.3289 127.11 65.7326 133.706C64.014 134.531 62.1733 135.382 60.3849 136.181C58.0207 137.325 56.0709 137.875 54.2257 139.433C39.4866 152.782 16.7825 173.298 2.54065 186.228C2.45778 186.311 2.3967 186.381 2.35308 186.446C2.29638 186.534 2.2833 186.599 2.32255 186.656C2.37926 186.735 2.56246 186.783 2.87216 186.8H2.91142L2.92887 186.796Z" fill="#222523"/>
<path d="M138.115 113.285C134.988 114.59 131.459 114.302 128.1 114.761C121.405 115.673 115.328 119.575 108.589 120.064C106.918 120.187 105.165 120.073 103.712 119.239C102.474 118.528 101.575 117.362 100.759 116.192C98.8357 113.412 97.1869 110.304 96.9295 106.929C96.5544 101.962 99.3286 97.1556 103.141 93.9515C106.953 90.7475 111.699 88.8966 116.419 87.312C121.269 85.6838 126.242 84.2695 131.346 83.9726C136.449 83.6758 141.74 84.5619 146.085 87.264C147.28 88.0061 148.431 88.9228 149.064 90.1756C149.648 91.3324 149.744 92.6682 149.771 93.9646C149.849 98.4434 149.129 103.101 146.979 107.078C146.176 108.566 145.409 109.308 143.93 110.042C141.941 111.028 140.161 112.434 138.111 113.29L138.115 113.285Z" fill="#222523"/>
<path d="M53.9248 139.843L60.8647 130.62L68.2626 134.264L56.542 143.261L53.9248 139.843Z" fill="#222523"/>
<path d="M237.176 17.8742C237.307 17.6298 237.416 17.3853 237.459 17.1409C237.512 16.8353 237.499 16.5865 237.442 16.3551C235.776 16.5079 232.509 17.6865 231.3 18.075C226.288 19.7557 220.256 21.4756 215.445 23.4268C213.992 24.0336 212.391 24.5443 210.869 24.9459C209.495 25.3039 207.99 25.8102 207.868 27.3643C207.685 28.652 208.396 30.6818 208.884 32.1136C209.076 32.6375 209.29 33.2049 209.608 33.624L209.634 33.6589C210.215 34.3792 210.93 33.851 212.33 33.0129C213.455 32.3275 214.555 31.6596 215.706 30.9568C222.079 27.0761 230.053 22.2264 236.548 18.2671C236.74 18.1361 236.958 18.0052 237.176 17.8742Z" fill="#F77800"/>
<path d="M237.473 16.4905C237.429 16.2111 237.324 15.971 237.185 15.7178C236.919 15.5083 236.574 15.3249 236.299 15.242C233.202 15.0412 229.015 15.2289 225.102 15.1678H215.458C212.43 15.1722 210.101 15.1547 209.381 15.1765C209.22 15.194 209.12 15.242 209.041 15.4035L209.028 15.4341C208.662 16.6913 208.47 18.3981 208.199 19.7469C207.772 21.8553 208.047 23.9026 208.217 25.9848C208.291 26.3864 208.426 26.3559 208.701 26.2686C211.863 25.1947 234.07 17.6734 237.237 16.5952C237.342 16.5647 237.42 16.5297 237.477 16.4861L237.473 16.4905Z" fill="#F9970B"/>
<path d="M202.572 89.9312C204.317 88.9141 204.221 84.0949 203.986 82.1872C203.872 80.7424 202.908 78.1625 201.809 80.5023C201.211 81.7333 200.937 84.3218 201.067 86.0374C201.238 88.1938 201.626 89.9181 202.542 89.9399L202.572 89.9312Z" fill="#514424"/>
<path d="M213.538 97.6838C214.275 97.2648 214.62 95.9464 214.93 94.9861C215.2 94.0825 215.191 93.2531 215.231 92.2927C215.257 90.3459 215.562 88.3859 215.148 86.4521C214.319 82.6761 212.675 86.5088 212.509 88.1589C212.221 90.001 212.439 91.782 212.566 93.6896C212.71 94.8159 212.766 97.7275 213.508 97.6882L213.538 97.6794V97.6838Z" fill="#504721"/>
<path d="M209.704 77.4379C210.162 77.3855 210.385 76.4033 210.616 75.3862C211.728 70.4491 209.325 65.0973 208.225 65.2501C207.706 65.3243 207.506 66.6252 207.314 67.8693C206.581 72.6274 208.635 77.5601 209.704 77.4335V77.4379Z" fill="#52431E"/>
<path d="M193.334 71.8242C192.169 69.7376 192.893 65.3636 193.979 63.1286C196.012 59.3876 197.085 62.8711 196.775 65.7914C196.64 67.4327 196.199 69.253 195.519 70.6499C195.148 71.5491 194.023 72.8325 193.364 71.8678L193.334 71.8285V71.8242Z" fill="#4F4121"/>
<path d="M210.29 14.9277C209.492 13.234 207.725 12.0597 206.277 10.9291C204.772 9.83784 203.171 8.86875 201.535 7.98261C186.718 -0.403003 167.368 -0.0887054 154.696 12.8411C152.502 15.0063 150.622 17.4726 149.065 20.1049C146.369 24.6796 144.659 30.1056 142.225 34.8375C139.661 40.3072 136.036 45.1657 131.203 48.8019C125.755 53.5513 120.625 58.2003 115.281 63.0501C94.7235 81.2138 78.8459 103.232 63.9497 125.586C61.664 129.065 59.374 132.453 57.1974 136.076C55.6183 138.787 58.7066 137.455 60.0021 136.923C62.1002 136.067 64.1853 135.09 66.3008 134.116C70.0652 132.374 73.642 130.895 77.1273 128.751C84.9788 124.028 91.9667 120.217 99.068 114.887C102.745 112.22 106.296 109.92 109.406 107.178C113.384 103.38 116.983 99.0196 121.606 95.8897C123.94 94.375 124.764 95.5012 124.01 97.8933C122.832 101.752 120.211 106.157 117.515 109.509C115.739 111.753 113.458 113.971 111.373 115.957C110.81 116.498 110.309 116.987 109.925 117.388C109.41 117.925 109.109 118.288 109.214 118.489C109.737 118.986 111.43 118.349 112.311 118.065C114.963 117.083 117.554 115.804 120.019 114.451C125.122 111.626 129.737 108.3 134.212 104.577C138.164 101.289 140.502 98.8144 142.91 96.8762C146.265 94.2484 144.171 99.2597 143.486 100.609C142.125 103.485 140.241 106.144 138.217 108.571C137.536 109.487 134.531 112.447 137.414 112.072C139.56 111.67 141.972 110.531 144.031 109.588C152.664 105.72 163.564 98.3386 171.141 89.9312C174.364 86.4433 178.042 83.3266 179.725 78.8871C181.448 73.7754 180.31 67.4677 177.008 63.1592C175.529 61.304 173.597 59.8023 171.8 58.2352C168.655 55.6204 168.912 54.7648 172.912 54.4374C173.972 54.3501 177.134 54.2323 180.567 53.189C184.462 52.0016 188.833 49.7492 193.138 47.261C201.971 42.158 211.319 34.3093 211.55 33.7026C211.664 33.4057 209.653 26.9845 209.518 24.7626C209.352 22.1041 210.608 21.6938 210.503 17.381C210.477 16.3464 210.373 15.4908 210.281 14.9233L210.29 14.9277Z" fill="#4F4420"/>
<path d="M182.948 36.7932C188.2 36.7932 192.457 32.5326 192.457 27.277C192.457 22.0213 188.2 17.7607 182.948 17.7607C177.696 17.7607 173.439 22.0213 173.439 27.277C173.439 32.5326 177.696 36.7932 182.948 36.7932Z" fill="#FD9E00" stroke="#231F20" stroke-miterlimit="10" stroke-linecap="round"/>
<path d="M183.275 34.2875C187.105 34.2875 190.21 31.1801 190.21 27.3468C190.21 23.5135 187.105 20.4061 183.275 20.4061C179.445 20.4061 176.339 23.5135 176.339 27.3468C176.339 31.1801 179.445 34.2875 183.275 34.2875Z" fill="#232623" stroke="#231F20" stroke-miterlimit="10" stroke-linecap="round"/>
<path d="M185.042 27.2377C186.222 27.2377 187.179 26.28 187.179 25.0987C187.179 23.9174 186.222 22.9597 185.042 22.9597C183.861 22.9597 182.904 23.9174 182.904 25.0987C182.904 26.28 183.861 27.2377 185.042 27.2377Z" fill="#E6E7E8" stroke="#231F20" stroke-miterlimit="10" stroke-linecap="round"/>
</g>
<defs>
<filter id="filter0_d_49_5" x="-1.21593e-05" y="-7.15256e-07" width="239.792" height="199.254" filterUnits="userSpaceOnUse" color-interpolation-filters="sRGB">
<feFlood flood-opacity="0" result="BackgroundImageFix"/>
<feColorMatrix in="SourceAlpha" type="matrix" values="0 0 0 0 0 0 0 0 0 0 0 0 0 0 0 0 0 0 127 0" result="hardAlpha"/>
<feOffset/>
<feGaussianBlur stdDeviation="1.15"/>
<feComposite in2="hardAlpha" operator="out"/>
<feColorMatrix type="matrix" values="0 0 0 0 1 0 0 0 0 1 0 0 0 0 1 0 0 0 1 0"/>
<feBlend mode="normal" in2="BackgroundImageFix" result="effect1_dropShadow_49_5"/>
<feBlend mode="normal" in="SourceGraphic" in2="effect1_dropShadow_49_5" result="shape"/>
</filter>
</defs>
</svg>