<svg width="565" height="200" viewBox="0 0 565 200" fill="none" xmlns="http://www.w3.org/2000/svg">
<path d="M240.876 161.01V110.61H259.74C266.124 110.61 271.14 112.146 274.788 115.218C278.484 118.242 280.332 122.466 280.332 127.89C280.332 131.442 279.492 134.514 277.812 137.106C276.18 139.65 273.828 141.618 270.756 143.01C267.684 144.354 264.012 145.026 259.74 145.026H243.828L246.204 142.578V161.01H240.876ZM275.292 161.01L262.332 142.722H268.092L281.124 161.01H275.292ZM246.204 143.01L243.828 140.49H259.596C264.636 140.49 268.452 139.386 271.044 137.178C273.684 134.97 275.004 131.874 275.004 127.89C275.004 123.858 273.684 120.738 271.044 118.53C268.452 116.322 264.636 115.218 259.596 115.218H243.828L246.204 112.698V143.01ZM292.908 161.01V110.61H327.468V115.218H298.236V161.01H292.908ZM297.66 139.626V135.018H324.3V139.626H297.66Z" fill="#FF851B"/>
<path d="M235.404 105.01V97.4503L266.58 59.8663L268.02 64.1143H235.98V54.6103H278.388V62.1703L247.284 99.7543L245.844 95.5063H279.468V105.01H235.404ZM310.937 105.874C306.953 105.874 303.257 105.226 299.849 103.93C296.489 102.634 293.561 100.81 291.065 98.4583C288.617 96.1063 286.697 93.3463 285.305 90.1783C283.961 87.0103 283.289 83.5543 283.289 79.8103C283.289 76.0663 283.961 72.6103 285.305 69.4423C286.697 66.2743 288.641 63.5143 291.137 61.1623C293.633 58.8103 296.561 56.9863 299.921 55.6903C303.281 54.3943 306.929 53.7463 310.865 53.7463C314.849 53.7463 318.497 54.3943 321.809 55.6903C325.169 56.9863 328.073 58.8103 330.521 61.1623C333.017 63.5143 334.961 66.2743 336.353 69.4423C337.745 72.5623 338.441 76.0183 338.441 79.8103C338.441 83.5543 337.745 87.0343 336.353 90.2503C334.961 93.4183 333.017 96.1783 330.521 98.5303C328.073 100.834 325.169 102.634 321.809 103.93C318.497 105.226 314.873 105.874 310.937 105.874ZM310.865 95.9383C313.121 95.9383 315.185 95.5543 317.057 94.7863C318.977 94.0183 320.657 92.9143 322.097 91.4743C323.537 90.0343 324.641 88.3303 325.409 86.3623C326.225 84.3943 326.633 82.2103 326.633 79.8103C326.633 77.4103 326.225 75.2263 325.409 73.2583C324.641 71.2903 323.537 69.5863 322.097 68.1463C320.705 66.7063 319.049 65.6023 317.129 64.8343C315.209 64.0663 313.121 63.6823 310.865 63.6823C308.609 63.6823 306.521 64.0663 304.601 64.8343C302.729 65.6023 301.073 66.7063 299.633 68.1463C298.193 69.5863 297.065 71.2903 296.249 73.2583C295.481 75.2263 295.097 77.4103 295.097 79.8103C295.097 82.1623 295.481 84.3463 296.249 86.3623C297.065 88.3303 298.169 90.0343 299.561 91.4743C301.001 92.9143 302.681 94.0183 304.601 94.7863C306.521 95.5543 308.609 95.9383 310.865 95.9383ZM347.207 105.01V54.6103H368.735C375.743 54.6103 381.191 56.2423 385.079 59.5063C388.967 62.7223 390.911 67.1863 390.911 72.8983C390.911 76.6423 390.023 79.8823 388.247 82.6183C386.471 85.3063 383.951 87.3703 380.687 88.8103C377.423 90.2503 373.535 90.9703 369.023 90.9703H353.687L358.871 85.8583V105.01H347.207ZM379.247 105.01L366.647 86.7223H379.103L391.847 105.01H379.247ZM358.871 87.1543L353.687 81.6823H368.375C371.975 81.6823 374.663 80.9143 376.439 79.3783C378.215 77.7943 379.103 75.6343 379.103 72.8983C379.103 70.1143 378.215 67.9543 376.439 66.4183C374.663 64.8823 371.975 64.1143 368.375 64.1143H353.687L358.871 58.5703V87.1543ZM396.912 105.01V97.4503L428.088 59.8663L429.528 64.1143H397.488V54.6103H439.896V62.1703L408.792 99.7543L407.352 95.5063H440.976V105.01H396.912ZM441.833 105.01L464.297 54.6103H475.817L498.353 105.01H486.113L467.681 60.5143H472.289L453.785 105.01H441.833ZM453.065 94.2103L456.161 85.3543H482.081L485.249 94.2103H453.065ZM503.582 105.01V54.6103H515.246V95.5063H540.518V105.01H503.582Z" fill="#E0E0E0"/>
<g filter="url(#filter0_d_28_69)">
<path d="M217.634 115.062C219.431 110.771 220.19 105.829 220.692 101.202C221.412 95.5841 221.625 89.4161 221.329 83.667C220.975 78.5554 220.151 73.9369 219.209 69.0479C218.105 63.3949 217.242 57.5149 215.798 52.0409C214.132 46.0867 213.944 39.4909 213.547 33.3403C212.989 26.0154 199.314 30.2322 195.423 31.4676C185.242 34.7284 172.544 42.5771 166.774 56.2403C159.855 73.4917 163.703 94.4055 181.718 106.467C187.166 110.229 193.155 112.818 198.651 114.464C206.642 116.729 216.225 118.135 217.621 115.101L217.643 115.062H217.634Z" fill="#F3E8C2"/>
<path d="M147.803 159.203L155.995 159.09L173.805 190.463L192.239 190.519L193.373 190.973L194.398 191.659L195.253 192.283L196.448 193.365L197.416 194.732L197.87 195.814L197.983 196.954H164.758L164.985 193.025L165.892 191.829L166.917 190.69L167.201 190.118L166.521 188.922L147.803 159.203Z" fill="#252727"/>
<path d="M114.404 152.371L124.135 155.445L139.782 190.463L154.002 190.746L155.424 191.886L157.644 193.479L158.953 195.242L159.637 196.954L116.51 196.836L116.624 195.701L118.046 194.217L119.695 192.68L122.028 191.143L123.053 190.803L126.696 190.519L133.579 190.406L114.404 152.371Z" fill="#242524"/>
<path d="M178.42 71.0253C182.058 72.8631 184.858 76.3858 187.689 79.3105C195.628 88.4601 200.535 99.491 208.945 108.318C210.324 109.797 211.536 111.107 213.198 111.976C216.675 113.744 219.309 112.822 216.971 117.847C215.519 121.204 214.193 123.976 212.906 126.534C212.06 128.101 212.047 128.481 210.747 130.214C208.854 132.667 207.275 135.513 204.967 137.578C202.328 139.952 199.798 142.716 197.011 144.78C194.76 146.334 192.134 148.556 189.643 149.844C186.682 151.503 183.825 152.834 180.509 154.017C177.347 155.344 174.376 156.174 171.04 157.007C158.189 160.172 142.037 159.784 129.841 156.75C117.884 153.969 108.114 149.761 96.284 147.596C87.5557 145.941 77.859 145.492 69.2266 145.47C56.5507 142.829 155.655 77.6561 177.264 70.6456C177.652 70.615 177.849 70.7634 178.372 70.9904L178.42 71.0122V71.0253Z" fill="#F57A01"/>
<path d="M2.92887 186.796C9.10107 186.591 16.1195 185.848 21.1052 181.99C33.7375 172.491 57.4929 154.982 71.8394 144.051C75.3552 141.45 79.0629 137.774 83.1064 136.032C92.2099 132.994 101.88 130.702 109.806 128.11C118.918 125.316 128.27 122.295 137.125 118.716C147.197 114.634 154.569 111.229 162.896 105.284C167.175 101.931 170.481 98.0461 173.892 93.2269C177.111 88.6521 179.231 83.8635 179.511 78.3546C179.537 73.9369 177.94 77.8875 176.536 80.3407C170.15 91.1098 160.008 98.6922 150.368 104.668C145.391 107.628 137.47 112.338 135.825 111.522C135.673 111.316 135.769 110.884 136.083 110.256C136.541 109.322 137.383 108.125 138.059 107.161C139.847 104.681 141.653 102.315 142.892 99.4823C143.603 97.8366 144.196 96.0119 143.119 96.3568C141.679 97.0989 140.008 99.1418 138.595 100.482C136.85 102.237 135.005 103.887 133.099 105.393C126.7 110.36 119.446 114.521 111.817 117.371C107.154 119.017 111.08 115.228 112.401 114.01C114.356 112.198 116.471 110.461 118.39 107.92C120.388 105.34 121.98 101.883 122.844 99.1462C123.128 98.1858 124.441 94.3401 122.748 95.0516C121.618 95.606 119.28 98.26 117.723 99.6002C112.323 104.472 105.876 109.208 99.7735 113.49C87.7694 121.78 79.3289 127.11 65.7326 133.706C64.014 134.531 62.1733 135.382 60.3849 136.181C58.0207 137.325 56.0709 137.875 54.2257 139.433C39.4866 152.782 16.7825 173.298 2.54065 186.228C2.45778 186.311 2.3967 186.381 2.35308 186.446C2.29638 186.534 2.2833 186.599 2.32255 186.656C2.37926 186.735 2.56246 186.783 2.87216 186.8H2.91142L2.92887 186.796Z" fill="#222523"/>
<path d="M138.115 113.285C134.988 114.59 131.459 114.302 128.1 114.761C121.405 115.673 115.328 119.575 108.589 120.064C106.918 120.187 105.165 120.073 103.712 119.239C102.474 118.528 101.575 117.362 100.759 116.192C98.8357 113.412 97.1869 110.304 96.9295 106.929C96.5544 101.962 99.3286 97.1556 103.141 93.9515C106.953 90.7475 111.699 88.8966 116.419 87.312C121.269 85.6838 126.242 84.2695 131.346 83.9726C136.449 83.6758 141.74 84.5619 146.085 87.264C147.28 88.0061 148.431 88.9228 149.064 90.1756C149.648 91.3324 149.744 92.6682 149.771 93.9646C149.849 98.4434 149.129 103.101 146.979 107.078C146.176 108.566 145.409 109.308 143.93 110.042C141.941 111.028 140.161 112.434 138.111 113.29L138.115 113.285Z" fill="#222523"/>
<path d="M53.9248 139.843L60.8647 130.62L68.2626 134.264L56.542 143.261L53.9248 139.843Z" fill="#222523"/>
<path d="M237.176 17.8742C237.307 17.6298 237.416 17.3853 237.459 17.1409C237.512 16.8353 237.499 16.5865 237.442 16.3551C235.776 16.5079 232.509 17.6865 231.3 18.075C226.288 19.7557 220.256 21.4756 215.445 23.4268C213.992 24.0336 212.391 24.5443 210.869 24.9459C209.495 25.3039 207.99 25.8102 207.868 27.3643C207.685 28.652 208.396 30.6818 208.884 32.1136C209.076 32.6375 209.29 33.2049 209.608 33.624L209.634 33.6589C210.215 34.3792 210.93 33.851 212.33 33.0129C213.455 32.3275 214.555 31.6596 215.706 30.9568C222.079 27.0761 230.053 22.2264 236.548 18.2671C236.74 18.1361 236.958 18.0052 237.176 17.8742Z" fill="#F77800"/>
<path d="M237.473 16.4905C237.429 16.2111 237.324 15.971 237.185 15.7178C236.919 15.5083 236.574 15.3249 236.299 15.242C233.202 15.0412 229.015 15.2289 225.102 15.1678H215.458C212.43 15.1722 210.101 15.1547 209.381 15.1765C209.22 15.194 209.12 15.242 209.041 15.4035L209.028 15.4341C208.662 16.6913 208.47 18.3981 208.199 19.7469C207.772 21.8553 208.047 23.9026 208.217 25.9848C208.291 26.3864 208.426 26.3559 208.701 26.2686C211.863 25.1947 234.07 17.6734 237.237 16.5952C237.342 16.5647 237.42 16.5297 237.477 16.4861L237.473 16.4905Z" fill="#F9970B"/>
<path d="M202.572 89.9312C204.317 88.9141 204.221 84.0949 203.986 82.1872C203.872 80.7424 202.908 78.1625 201.809 80.5023C201.211 81.7333 200.937 84.3218 201.067 86.0374C201.238 88.1938 201.626 89.9181 202.542 89.9399L202.572 89.9312Z" fill="#514424"/>
<path d="M213.538 97.6838C214.275 97.2648 214.62 95.9464 214.93 94.9861C215.2 94.0825 215.191 93.2531 215.231 92.2927C215.257 90.3459 215.562 88.3859 215.148 86.4521C214.319 82.6761 212.675 86.5088 212.509 88.1589C212.221 90.001 212.439 91.782 212.566 93.6896C212.71 94.8159 212.766 97.7275 213.508 97.6882L213.538 97.6794V97.6838Z" fill="#504721"/>
<path d="M209.704 77.4379C210.162 77.3855 210.385 76.4033 210.616 75.3862C211.728 70.4491 209.325 65.0973 208.225 65.2501C207.706 65.3243 207.506 66.6252 207.314 67.8693C206.581 72.6274 208.635 77.5601 209.704 77.4335V77.4379Z" fill="#52431E"/>
<path d="M193.334 71.8242C192.169 69.7376 192.893 65.3636 193.979 63.1286C196.012 59.3876 197.085 62.8711 196.775 65.7914C196.64 67.4327 196.199 69.253 195.519 70.6499C195.148 71.5491 194.023 72.8325 193.364 71.8678L193.334 71.8285V71.8242Z" fill="#4F4121"/>
<path d="M209.29 14.9277C208.492 13.234 206.725 12.0597 205.277 10.9291C203.772 9.83784 202.171 8.86875 200.535 7.98261C185.718 -0.403003 166.368 -0.0887053 153.696 12.8411C151.502 15.0063 149.622 17.4726 148.065 20.1049C145.369 24.6796 143.659 30.1056 141.225 34.8375C138.661 40.3072 135.036 45.1657 130.203 48.8019C124.755 53.5513 119.625 58.2003 114.281 63.0501C93.7235 81.2138 77.8459 103.232 62.9497 125.586C60.664 129.065 58.374 132.453 56.1974 136.076C54.6183 138.787 57.7066 137.455 59.0021 136.923C61.1002 136.067 63.1853 135.09 65.3008 134.116C69.0652 132.374 72.642 130.895 76.1273 128.751C83.9788 124.028 90.9667 120.217 98.068 114.887C101.745 112.22 105.296 109.92 108.406 107.178C112.384 103.38 115.983 99.0196 120.606 95.8897C122.94 94.375 123.764 95.5012 123.01 97.8933C121.832 101.752 119.211 106.157 116.515 109.509C114.739 111.753 112.458 113.971 110.373 115.957C109.81 116.498 109.309 116.987 108.925 117.388C108.41 117.925 108.109 118.288 108.214 118.489C108.737 118.986 110.43 118.349 111.311 118.065C113.963 117.083 116.554 115.804 119.019 114.451C124.122 111.626 128.737 108.3 133.212 104.577C137.164 101.289 139.502 98.8144 141.91 96.8762C145.265 94.2484 143.171 99.2597 142.486 100.609C141.125 103.485 139.241 106.144 137.217 108.571C136.536 109.487 133.531 112.447 136.414 112.072C138.56 111.67 140.972 110.531 143.031 109.588C151.664 105.72 162.564 98.3386 170.141 89.9312C173.364 86.4433 177.042 83.3266 178.725 78.8871C180.448 73.7754 179.31 67.4677 176.008 63.1592C174.529 61.304 172.597 59.8023 170.8 58.2352C167.655 55.6204 167.912 54.7648 171.912 54.4374C172.972 54.3501 176.134 54.2323 179.567 53.189C183.462 52.0016 187.833 49.7492 192.138 47.261C200.971 42.158 210.319 34.3093 210.55 33.7026C210.664 33.4057 208.653 26.9845 208.518 24.7626C208.352 22.1041 209.608 21.6938 209.503 17.381C209.477 16.3464 209.373 15.4908 209.281 14.9233L209.29 14.9277Z" fill="#4F4420"/>
<path d="M182.948 36.7932C188.2 36.7932 192.457 32.5326 192.457 27.277C192.457 22.0213 188.2 17.7607 182.948 17.7607C177.696 17.7607 173.439 22.0213 173.439 27.277C173.439 32.5326 177.696 36.7932 182.948 36.7932Z" fill="#FD9E00" stroke="#231F20" stroke-miterlimit="10" stroke-linecap="round"/>
<path d="M183.275 34.2875C187.105 34.2875 190.21 31.1801 190.21 27.3468C190.21 23.5135 187.105 20.4061 183.275 20.4061C179.445 20.4061 176.339 23.5135 176.339 27.3468C176.339 31.1801 179.445 34.2875 183.275 34.2875Z" fill="#232623" stroke="#231F20" stroke-miterlimit="10" stroke-linecap="round"/>
<path d="M185.042 27.2377C186.222 27.2377 187.179 26.28 187.179 25.0987C187.179 23.9174 186.222 22.9597 185.042 22.9597C183.861 22.9597 182.904 23.9174 182.904 25.0987C182.904 26.28 183.861 27.2377 185.042 27.2377Z" fill="#E6E7E8" stroke="#231F20" stroke-miterlimit="10" stroke-linecap="round"/>
</g>
<defs>
<filter id="filter0_d_28_69" x="-1.21593e-05" y="-7.15256e-07" width="239.792" height="199.254" filterUnits="userSpaceOnUse" color-interpolation-filters="sRGB">
<feFlood flood-opacity="0" result="BackgroundImageFix"/>
<feColorMatrix in="SourceAlpha" type="matrix" values="0 0 0 0 0 0 0 0 0 0 0 0 0 0 0 0 0 0 127 0" result="hardAlpha"/>
<feOffset/>
<feGaussianBlur stdDeviation="1.15"/>
<feComposite in2="hardAlpha" operator="out"/>
<feColorMatrix type="matrix" values="0 0 0 0 1 0 0 0 0 1 0 0 0 0 1 0 0 0 1 0"/>
<feBlend mode="normal" in2="BackgroundImageFix" result="effect1_dropShadow_28_69"/>
<feBlend mode="normal" in="SourceGraphic" in2="effect1_dropShadow_28_69" result="shape"/>
</filter>
</defs>
</svg>
