<svg width="139" height="139" viewBox="0 0 139 139" fill="none" xmlns="http://www.w3.org/2000/svg">
<circle cx="69.5" cy="69.5" r="69" fill="#FFC184" stroke="black"/>
<mask id="mask0_0_1" style="mask-type:alpha" maskUnits="userSpaceOnUse" x="1" y="1" width="137" height="137">
<circle cx="69.5" cy="69.5" r="68" fill="#FFC184" stroke="black"/>
</mask>
<g mask="url(#mask0_0_1)">
<path d="M98.6742 138.176C100.558 133.679 101.353 128.5 101.879 123.651C102.633 117.763 102.857 111.299 102.546 105.274C102.176 99.9168 101.312 95.0766 100.324 89.9528C99.1679 84.0284 98.2628 77.8661 96.7496 72.1293C95.0033 65.8892 94.8068 58.9766 94.3908 52.5307C93.8056 44.8541 79.4742 49.2734 75.3965 50.5681C64.7268 53.9855 51.4194 62.211 45.3714 76.5303C38.1211 94.61 42.1531 116.528 61.0331 129.168C66.7428 133.112 73.0194 135.825 78.7794 137.549C87.1542 139.924 97.1976 141.397 98.6605 138.217L98.6833 138.176H98.6742Z" fill="#F3E8C2"/>
<path d="M57.577 92.0247C61.3896 93.9507 64.3244 97.6426 67.2913 100.708C75.6113 110.297 80.7541 121.857 89.5678 131.108C91.0124 132.658 92.2833 134.031 94.025 134.941C97.6684 136.794 100.43 135.829 97.9793 141.094C96.457 144.612 95.0673 147.517 93.7187 150.198C92.8318 151.841 92.8181 152.239 91.4558 154.055C89.4718 156.626 87.817 159.609 85.3987 161.773C82.633 164.261 79.9816 167.157 77.0604 169.321C74.7016 170.95 71.9496 173.278 69.3393 174.628C66.2353 176.366 63.241 177.762 59.7667 179.001C56.4524 180.392 53.3393 181.261 49.8421 182.135C36.3747 185.452 19.4467 185.045 6.66501 181.865C-5.86527 178.951 -16.1053 174.541 -28.503 172.272C-37.6504 170.538 -47.8127 170.067 -56.8595 170.044C-70.1441 167.276 33.7187 98.9739 56.3656 91.6267C56.7724 91.5947 56.9781 91.7503 57.5267 91.9881L57.577 92.011V92.0247Z" fill="#F57A01"/>
<path d="M-126.341 213.354C-119.872 213.139 -112.517 212.361 -107.292 208.317C-94.053 198.362 -69.157 180.013 -54.1216 168.557C-50.437 165.831 -46.5513 161.979 -42.3136 160.153C-32.773 156.969 -22.6381 154.568 -14.3319 151.85C-4.78217 148.922 5.01897 145.756 14.299 142.005C24.8544 137.728 32.5801 134.159 41.3069 127.928C45.7915 124.415 49.2567 120.343 52.8315 115.293C56.2052 110.498 58.4269 105.48 58.7195 99.7062C58.7469 95.0765 57.0738 99.2167 55.6018 101.788C48.9092 113.074 38.2807 121.02 28.1778 127.283C22.9618 130.385 14.6601 135.321 12.9367 134.466C12.7767 134.251 12.8772 133.798 13.2064 133.139C13.6864 132.16 14.5687 130.907 15.2772 129.896C17.1515 127.297 19.0441 124.817 20.3424 121.848C21.0875 120.124 21.7092 118.211 20.5801 118.573C19.0715 119.351 17.3207 121.492 15.8395 122.896C14.011 124.735 12.0772 126.464 10.0795 128.043C3.37325 133.249 -4.22903 137.609 -12.2244 140.596C-17.1113 142.321 -12.997 138.35 -11.6119 137.073C-9.56388 135.175 -7.34674 133.354 -5.33531 130.692C-3.2416 127.988 -1.57304 124.365 -0.667892 121.496C-0.37075 120.49 1.00525 116.459 -0.768463 117.205C-1.95246 117.786 -4.40274 120.567 -6.03474 121.972C-11.6942 127.077 -18.4507 132.041 -24.8461 136.529C-37.4267 145.217 -46.2724 150.803 -60.5215 157.715C-62.3227 158.58 -64.2518 159.472 -66.1261 160.309C-68.6038 161.508 -70.6473 162.084 -72.581 163.717C-88.0278 177.707 -111.822 199.209 -126.748 212.759C-126.835 212.846 -126.899 212.92 -126.944 212.988C-127.004 213.08 -127.017 213.148 -126.976 213.208C-126.917 213.29 -126.725 213.34 -126.4 213.359H-126.359L-126.341 213.354Z" fill="#222523"/>
<path d="M15.3368 136.314C12.0591 137.682 8.36083 137.38 4.84084 137.861C-2.1763 138.817 -8.5443 142.907 -15.6072 143.419C-17.358 143.547 -19.1957 143.428 -20.718 142.554C-22.0163 141.809 -22.958 140.587 -23.8129 139.361C-25.8289 136.447 -27.5569 133.19 -27.8266 129.653C-28.2197 124.447 -25.3123 119.41 -21.3169 116.052C-17.3214 112.694 -12.3477 110.755 -7.40144 109.094C-2.31802 107.388 2.89341 105.905 8.24198 105.594C13.5905 105.283 19.1357 106.212 23.6888 109.044C24.9414 109.821 26.1482 110.782 26.8111 112.095C27.4237 113.307 27.5242 114.707 27.5517 116.066C27.634 120.76 26.8797 125.641 24.626 129.809C23.7848 131.369 22.9802 132.147 21.4305 132.915C19.346 133.949 17.4808 135.422 15.3322 136.319L15.3368 136.314Z" fill="#222523"/>
<path d="M119.154 36.322C119.291 36.0658 119.405 35.8096 119.451 35.5534C119.506 35.2332 119.492 34.9724 119.432 34.7299C117.686 34.8901 114.262 36.1253 112.996 36.5324C107.743 38.2937 101.421 40.0962 96.3787 42.1412C94.8564 42.7771 93.1787 43.3123 91.5833 43.7332C90.1433 44.1084 88.5661 44.639 88.4381 46.2677C88.2461 47.6173 88.9913 49.7445 89.5033 51.2451C89.7044 51.7941 89.9284 52.3888 90.2621 52.828L90.2896 52.8646C90.8976 53.6194 91.6473 53.0659 93.1147 52.1875C94.2941 51.4693 95.4461 50.7693 96.653 50.0328C103.332 45.9657 111.688 40.8831 118.495 36.7337C118.696 36.5965 118.925 36.4592 119.154 36.322Z" fill="#F77800"/>
<path d="M119.465 34.8718C119.419 34.579 119.309 34.3274 119.163 34.0621C118.884 33.8425 118.523 33.6504 118.235 33.5634C114.989 33.353 110.601 33.5497 106.5 33.4857H96.3928C93.2203 33.4902 90.7791 33.4719 90.0248 33.4948C89.8557 33.5131 89.7505 33.5634 89.6683 33.7327L89.6546 33.7647C89.2706 35.0823 89.0694 36.871 88.786 38.2847C88.338 40.4943 88.626 42.6399 88.8043 44.8221C88.882 45.243 89.0237 45.211 89.3117 45.1195C92.626 43.9941 115.899 36.1116 119.218 34.9816C119.328 34.9496 119.41 34.913 119.469 34.8673L119.465 34.8718Z" fill="#F9970B"/>
<path d="M82.8884 111.839C84.717 110.773 84.6164 105.722 84.3695 103.723C84.2507 102.209 83.2404 99.505 82.0884 101.957C81.4621 103.247 81.1741 105.96 81.3113 107.758C81.4895 110.018 81.8964 111.825 82.8564 111.848L82.8884 111.839Z" fill="#514424"/>
<path d="M94.3809 119.964C95.1535 119.524 95.5147 118.143 95.8392 117.136C96.1227 116.189 96.1135 115.32 96.1547 114.314C96.1821 112.273 96.5021 110.219 96.0678 108.193C95.1992 104.235 93.4758 108.252 93.3021 109.981C93.0004 111.912 93.229 113.778 93.3615 115.778C93.5124 116.958 93.5718 120.009 94.349 119.968L94.3809 119.959V119.964Z" fill="#504721"/>
<path d="M90.3637 98.7453C90.8437 98.6904 91.0768 97.6611 91.3191 96.5952C92.4848 91.421 89.966 85.8123 88.814 85.9724C88.27 86.0502 88.0597 87.4135 87.8585 88.7173C87.0905 93.7039 89.2437 98.8734 90.3637 98.7408V98.7453Z" fill="#52431E"/>
<path d="M73.2068 92.8624C71.9862 90.6757 72.745 86.0917 73.8833 83.7494C76.0136 79.8287 77.1382 83.4795 76.8136 86.54C76.6719 88.2602 76.2102 90.1678 75.497 91.6318C75.1085 92.5742 73.929 93.9192 73.2387 92.9082L73.2068 92.867V92.8624Z" fill="#4F4121"/>
<path d="M89.9288 33.234C89.0923 31.459 87.2408 30.2284 85.7231 29.0435C84.146 27.8998 82.4682 26.8842 80.754 25.9555C65.2248 17.1672 44.946 17.4966 31.666 31.0473C29.3665 33.3164 27.3963 35.9012 25.7643 38.6598C22.9391 43.4542 21.1471 49.1407 18.5963 54.0998C15.9083 59.8321 12.1094 64.9239 7.04427 68.7347C1.33456 73.7121 -4.04144 78.5843 -9.64143 83.667C-31.1866 102.703 -47.8266 125.778 -63.438 149.206C-65.8334 152.852 -68.2334 156.402 -70.5145 160.199C-72.1694 163.04 -68.9328 161.645 -67.5751 161.087C-65.3763 160.19 -63.1911 159.165 -60.974 158.145C-57.0288 156.32 -53.2803 154.769 -49.6277 152.523C-41.3991 147.573 -34.0757 143.579 -26.6334 137.993C-22.7797 135.198 -19.0586 132.787 -15.7991 129.914C-11.63 125.934 -7.85858 121.364 -3.01286 118.083C-0.567146 116.496 0.296852 117.676 -0.494003 120.183C-1.72829 124.227 -4.47571 128.843 -7.30085 132.357C-9.16142 134.708 -11.5523 137.032 -13.7374 139.114C-14.3271 139.681 -14.8529 140.194 -15.2551 140.614C-15.7946 141.177 -16.11 141.557 -16.0003 141.767C-15.4517 142.289 -13.678 141.621 -12.7546 141.324C-9.97515 140.294 -7.25971 138.954 -4.67686 137.536C0.671715 134.576 5.50829 131.09 10.1986 127.187C14.3403 123.743 16.7906 121.149 19.314 119.117C22.8294 116.363 20.6351 121.615 19.9174 123.029C18.4911 126.044 16.5163 128.83 14.3951 131.373C13.682 132.334 10.5323 135.436 13.554 135.042C15.8031 134.621 18.3311 133.427 20.4888 132.439C29.5357 128.386 40.9597 120.65 48.9003 111.839C52.2785 108.184 56.1323 104.917 57.8968 100.264C59.7025 94.9073 58.5094 88.2967 55.0488 83.7814C53.4991 81.8371 51.474 80.2633 49.5906 78.6209C46.2946 75.8806 46.5643 74.9839 50.7563 74.6408C51.8671 74.5493 55.1814 74.4258 58.7791 73.3324C62.8614 72.0881 67.442 69.7275 71.954 67.1198C81.2111 61.7718 91.0077 53.5463 91.25 52.9104C91.3688 52.5993 89.2614 45.8697 89.1197 43.5411C88.946 40.755 90.2625 40.325 90.1528 35.8051C90.1254 34.7208 90.0157 33.8242 89.9197 33.2295L89.9288 33.234Z" fill="#4F4420"/>
<path d="M62.3212 56.1493C67.8251 56.1493 72.2869 51.6842 72.2869 46.1762C72.2869 40.6682 67.8251 36.2031 62.3212 36.2031C56.8173 36.2031 52.3555 40.6682 52.3555 46.1762C52.3555 51.6842 56.8173 56.1493 62.3212 56.1493Z" fill="#FD9E00" stroke="#231F20" stroke-miterlimit="10" stroke-linecap="round"/>
<path d="M62.6646 53.5234C66.6789 53.5234 69.9331 50.2667 69.9331 46.2494C69.9331 42.2321 66.6789 38.9754 62.6646 38.9754C58.6503 38.9754 55.396 42.2321 55.396 46.2494C55.396 50.2667 58.6503 53.5234 62.6646 53.5234Z" fill="#232623" stroke="#231F20" stroke-miterlimit="10" stroke-linecap="round"/>
<path d="M64.5159 46.1351C65.753 46.1351 66.7559 45.1315 66.7559 43.8934C66.7559 42.6554 65.753 41.6517 64.5159 41.6517C63.2788 41.6517 62.2759 42.6554 62.2759 43.8934C62.2759 45.1315 63.2788 46.1351 64.5159 46.1351Z" fill="#E6E7E8" stroke="#231F20" stroke-miterlimit="10" stroke-linecap="round"/>
</g>
</svg>
