<svg width="649" height="195" viewBox="0 0 649 195" fill="none" xmlns="http://www.w3.org/2000/svg">
<path d="M245.926 169.257V102.165H271.038C279.536 102.165 286.214 104.21 291.07 108.299C295.99 112.325 298.45 117.948 298.45 125.168C298.45 129.896 297.332 133.986 295.095 137.436C292.923 140.823 289.792 143.443 285.702 145.296C281.613 147.085 276.725 147.979 271.038 147.979H249.856L253.019 144.72V169.257H245.926ZM291.741 169.257L274.488 144.912H282.156L299.504 169.257H291.741ZM253.019 145.296L249.856 141.941H270.846C277.555 141.941 282.635 140.471 286.086 137.532C289.6 134.593 291.357 130.471 291.357 125.168C291.357 119.801 289.6 115.647 286.086 112.708C282.635 109.769 277.555 108.299 270.846 108.299H249.856L253.019 104.945V145.296ZM315.19 169.257V102.165H361.196V108.299H322.282V169.257H315.19ZM321.516 140.791V134.657H356.979V140.791H321.516Z" fill="#FF851B"/>
<path d="M238.642 94.7104V84.6466L280.143 34.6151L282.06 40.27H239.409V27.6184H295.862V37.6822L254.457 87.7136L252.54 82.0587H297.3V94.7104H238.642ZM339.19 95.8605C333.887 95.8605 328.967 94.9979 324.43 93.2727C319.957 91.5475 316.059 89.1194 312.737 85.9884C309.478 82.8574 306.922 79.1834 305.069 74.9661C303.28 70.7489 302.385 66.1483 302.385 61.1644C302.385 56.1804 303.28 51.5798 305.069 47.3626C306.922 43.1454 309.51 39.4713 312.833 36.3403C316.155 33.2094 320.053 30.7813 324.526 29.0561C328.999 27.3309 333.855 26.4682 339.094 26.4682C344.398 26.4682 349.254 27.3309 353.663 29.0561C358.136 30.7813 362.002 33.2094 365.26 36.3403C368.583 39.4713 371.171 43.1454 373.024 47.3626C374.877 51.5159 375.803 56.1165 375.803 61.1644C375.803 66.1483 374.877 70.7809 373.024 75.062C371.171 79.2792 368.583 82.9533 365.26 86.0842C362.002 89.1513 358.136 91.5475 353.663 93.2727C349.254 94.9979 344.43 95.8605 339.19 95.8605ZM339.094 82.6338C342.098 82.6338 344.845 82.1226 347.337 81.1003C349.893 80.0779 352.129 78.6083 354.046 76.6914C355.963 74.7745 357.433 72.5061 358.455 69.8863C359.541 67.2665 360.085 64.3592 360.085 61.1644C360.085 57.9695 359.541 55.0622 358.455 52.4424C357.433 49.8226 355.963 47.5543 354.046 45.6374C352.193 43.7205 349.989 42.2508 347.433 41.2285C344.877 40.2061 342.098 39.6949 339.094 39.6949C336.091 39.6949 333.312 40.2061 330.756 41.2285C328.264 42.2508 326.059 43.7205 324.142 45.6374C322.226 47.5543 320.724 49.8226 319.638 52.4424C318.615 55.0622 318.104 57.9695 318.104 61.1644C318.104 64.2953 318.615 67.2026 319.638 69.8863C320.724 72.5061 322.194 74.7745 324.047 76.6914C325.964 78.6083 328.2 80.0779 330.756 81.1003C333.312 82.1226 336.091 82.6338 339.094 82.6338ZM387.472 94.7104V27.6184H416.13C425.459 27.6184 432.712 29.7909 437.887 34.1359C443.063 38.417 445.651 44.3594 445.651 51.9632C445.651 56.9472 444.469 61.2602 442.105 64.9024C439.74 68.4806 436.386 71.2282 432.041 73.1451C427.696 75.062 422.52 76.0205 416.514 76.0205H396.099L402.999 69.2154V94.7104H387.472ZM430.124 94.7104L413.351 70.3656H429.932L446.897 94.7104H430.124ZM402.999 70.9406L396.099 63.6564H415.651C420.443 63.6564 424.022 62.634 426.386 60.5893C428.75 58.4807 429.932 55.6053 429.932 51.9632C429.932 48.2572 428.75 45.3818 426.386 43.3371C424.022 41.2924 420.443 40.27 415.651 40.27H396.099L402.999 32.8899V70.9406ZM453.64 94.7104V84.6466L495.141 34.6151L497.058 40.27H454.406V27.6184H510.86V37.6822L469.454 87.7136L467.537 82.0587H512.297V94.7104H453.64ZM513.438 94.7104L543.341 27.6184H558.677L588.677 94.7104H572.383L547.846 35.4777H553.98L529.348 94.7104H513.438ZM528.39 80.3335L532.511 68.5445H567.015L571.233 80.3335H528.39ZM595.637 94.7104V27.6184H611.164V82.0587H644.806V94.7104H595.637Z" fill="#333333"/>
<path d="M215.334 112.762C217.131 108.471 217.89 103.529 218.392 98.9022C219.112 93.2841 219.325 87.1161 219.029 81.367C218.675 76.2554 217.851 71.6369 216.909 66.7479C215.805 61.0949 214.942 55.2149 213.498 49.7409C211.832 43.7867 211.644 37.1909 211.247 31.0403C210.689 23.7154 197.014 27.9322 193.123 29.1676C182.942 32.4284 170.244 40.2771 164.474 53.9403C157.555 71.1917 161.403 92.1055 179.418 104.167C184.866 107.929 190.855 110.518 196.351 112.164C204.342 114.429 213.925 115.835 215.321 112.801L215.343 112.762H215.334Z" fill="#F3E8C2"/>
<path d="M145.503 156.903L153.695 156.79L171.505 188.163L189.939 188.219L191.073 188.673L192.098 189.359L192.953 189.983L194.148 191.065L195.116 192.432L195.57 193.514L195.684 194.654H162.458L162.685 190.725L163.592 189.529L164.618 188.39L164.901 187.818L164.221 186.622L145.503 156.903Z" fill="#252727"/>
<path d="M112.104 150.071L121.835 153.145L137.482 188.163L151.702 188.446L153.124 189.586L155.344 191.179L156.653 192.942L157.337 194.654L114.21 194.536L114.324 193.401L115.746 191.917L117.395 190.38L119.728 188.843L120.753 188.503L124.396 188.219L131.279 188.106L112.104 150.071Z" fill="#242524"/>
<path d="M176.12 68.7253C179.758 70.5631 182.558 74.0858 185.389 77.0105C193.328 86.1601 198.235 97.191 206.645 106.018C208.024 107.497 209.236 108.807 210.898 109.676C214.375 111.444 217.009 110.522 214.671 115.547C213.219 118.904 211.893 121.676 210.606 124.234C209.76 125.801 209.747 126.181 208.447 127.914C206.554 130.367 204.975 133.213 202.667 135.278C200.028 137.652 197.498 140.416 194.711 142.48C192.46 144.034 189.834 146.256 187.343 147.544C184.382 149.203 181.525 150.534 178.209 151.717C175.047 153.044 172.076 153.874 168.74 154.707C155.889 157.872 139.737 157.484 127.541 154.45C115.585 151.669 105.814 147.461 93.984 145.296C85.2557 143.641 75.559 143.192 66.9266 143.17C54.2507 140.529 153.355 75.3561 174.964 68.3456C175.352 68.315 175.549 68.4634 176.072 68.6904L176.12 68.7122V68.7253Z" fill="#F57A01"/>
<path d="M0.628882 184.496C6.80108 184.291 13.8195 183.548 18.8052 179.69C31.4375 170.191 55.1929 152.682 69.5394 141.751C73.0552 139.15 76.7629 135.474 80.8064 133.732C89.9099 130.694 99.5804 128.402 107.506 125.81C116.618 123.016 125.97 119.995 134.825 116.416C144.897 112.334 152.269 108.929 160.596 102.984C164.875 99.6312 168.181 95.7461 171.592 90.9269C174.811 86.3521 176.931 81.5635 177.211 76.0546C177.237 71.6369 175.64 75.5875 174.236 78.0407C167.85 88.8098 157.708 96.3922 148.068 102.368C143.091 105.328 135.17 110.038 133.525 109.222C133.373 109.016 133.469 108.584 133.783 107.956C134.241 107.022 135.083 105.825 135.759 104.861C137.547 102.381 139.353 100.015 140.592 97.1823C141.303 95.5366 141.896 93.7119 140.819 94.0568C139.379 94.7989 137.708 96.8418 136.295 98.1819C134.55 99.9368 132.705 101.587 130.799 103.093C124.4 108.06 117.146 112.221 109.517 115.071C104.854 116.717 108.78 112.928 110.101 111.71C112.056 109.898 114.171 108.161 116.09 105.62C118.088 103.04 119.68 99.5832 120.544 96.8462C120.828 95.8858 122.141 92.0401 120.448 92.7516C119.318 93.306 116.98 95.96 115.423 97.3002C110.023 102.172 103.576 106.908 97.4735 111.19C85.4694 119.48 77.0289 124.81 63.4327 131.406C61.714 132.231 59.8733 133.082 58.0849 133.881C55.7207 135.025 53.7709 135.575 51.9258 137.133C37.1866 150.482 14.4825 170.998 0.240666 183.928C0.157788 184.011 0.0967169 184.081 0.0530971 184.146C-0.00360859 184.234 -0.0166911 184.299 0.0225667 184.356C0.0792725 184.435 0.262473 184.483 0.572174 184.5H0.61143L0.628882 184.496Z" fill="#222523"/>
<path d="M135.815 110.985C132.688 112.29 129.159 112.002 125.8 112.461C119.105 113.373 113.028 117.275 106.289 117.764C104.618 117.887 102.865 117.773 101.412 116.939C100.174 116.228 99.2751 115.062 98.4594 113.892C96.5357 111.112 94.8869 108.004 94.6296 104.629C94.2544 99.6617 97.0287 94.8556 100.841 91.6515C104.653 88.4475 109.399 86.5966 114.119 85.012C118.969 83.3838 123.942 81.9695 129.046 81.6726C134.149 81.3758 139.44 82.2619 143.785 84.964C144.98 85.7061 146.131 86.6228 146.764 87.8756C147.348 89.0324 147.444 90.3682 147.471 91.6646C147.549 96.1434 146.829 100.801 144.679 104.778C143.876 106.266 143.109 107.008 141.63 107.742C139.641 108.728 137.861 110.134 135.811 110.99L135.815 110.985Z" fill="#222523"/>
<path d="M51.6248 137.543L58.5647 128.32L65.9626 131.964L54.2419 140.961L51.6248 137.543Z" fill="#222523"/>
<path d="M234.876 15.5742C235.007 15.3298 235.116 15.0853 235.159 14.8409C235.212 14.5353 235.199 14.2865 235.142 14.0551C233.476 14.2079 230.209 15.3865 229 15.775C223.988 17.4557 217.956 19.1756 213.145 21.1268C211.692 21.7336 210.091 22.2443 208.569 22.6459C207.195 23.0039 205.69 23.5102 205.568 25.0643C205.385 26.352 206.096 28.3818 206.584 29.8136C206.776 30.3375 206.99 30.9049 207.308 31.324L207.334 31.3589C207.915 32.0792 208.63 31.551 210.03 30.7129C211.156 30.0275 212.255 29.3596 213.406 28.6568C219.779 24.7761 227.753 19.9264 234.248 15.9671C234.44 15.8361 234.658 15.7052 234.876 15.5742Z" fill="#F77800"/>
<path d="M235.173 14.1905C235.129 13.9111 235.024 13.671 234.885 13.4178C234.619 13.2083 234.274 13.0249 233.999 12.942C230.902 12.7412 226.715 12.9289 222.802 12.8678H213.158C210.13 12.8722 207.801 12.8547 207.081 12.8765C206.92 12.894 206.82 12.942 206.741 13.1035L206.728 13.1341C206.362 14.3913 206.17 16.0981 205.899 17.4469C205.472 19.5553 205.747 21.6026 205.917 23.6848C205.991 24.0864 206.126 24.0559 206.401 23.9686C209.563 22.8947 231.77 15.3734 234.937 14.2952C235.042 14.2647 235.12 14.2297 235.177 14.1861L235.173 14.1905Z" fill="#F9970B"/>
<path d="M200.272 87.6312C202.017 86.6141 201.921 81.7949 201.686 79.8872C201.572 78.4424 200.608 75.8625 199.509 78.2023C198.911 79.4333 198.637 82.0218 198.767 83.7374C198.938 85.8938 199.326 87.6181 200.242 87.6399L200.272 87.6312Z" fill="#514424"/>
<path d="M211.238 95.3838C211.976 94.9648 212.32 93.6464 212.63 92.6861C212.9 91.7825 212.892 90.9531 212.931 89.9927C212.957 88.0459 213.262 86.0859 212.848 84.1521C212.019 80.3761 210.375 84.2088 210.209 85.8589C209.921 87.701 210.139 89.482 210.266 91.3896C210.41 92.5159 210.466 95.4275 211.208 95.3882L211.238 95.3794V95.3838Z" fill="#504721"/>
<path d="M207.404 75.1379C207.862 75.0855 208.085 74.1033 208.316 73.0862C209.428 68.1491 207.025 62.7973 205.925 62.9501C205.406 63.0243 205.206 64.3252 205.014 65.5693C204.281 70.3274 206.336 75.2601 207.404 75.1335V75.1379Z" fill="#52431E"/>
<path d="M191.034 69.5242C189.869 67.4376 190.593 63.0636 191.679 60.8286C193.712 57.0876 194.785 60.5711 194.475 63.4914C194.34 65.1327 193.899 66.953 193.219 68.3499C192.848 69.2491 191.723 70.5325 191.064 69.5678L191.034 69.5285V69.5242Z" fill="#4F4121"/>
<path d="M207.99 12.6277C207.191 10.934 205.425 9.75974 203.977 8.62915C202.472 7.53784 200.871 6.56876 199.235 5.68261C184.418 -2.703 165.068 -2.3887 152.396 10.5411C150.202 12.7063 148.322 15.1726 146.765 17.8049C144.069 22.3796 142.359 27.8056 139.925 32.5375C137.361 38.0072 133.736 42.8657 128.903 46.5019C123.455 51.2513 118.325 55.9003 112.981 60.7501C92.4234 78.9138 76.5458 100.932 61.6497 123.286C59.364 126.765 57.074 130.153 54.8973 133.776C53.3183 136.487 56.4066 135.155 57.7021 134.623C59.8002 133.767 61.8852 132.79 64.0008 131.816C67.7652 130.074 71.342 128.595 74.8272 126.451C82.6788 121.728 89.6667 117.917 96.768 112.587C100.445 109.92 103.996 107.62 107.106 104.878C111.084 101.08 114.683 96.7196 119.306 93.5897C121.64 92.075 122.464 93.2012 121.71 95.5933C120.532 99.4522 117.911 103.857 115.215 107.209C113.439 109.453 111.158 111.671 109.073 113.657C108.51 114.198 108.009 114.687 107.625 115.088C107.11 115.625 106.809 115.988 106.914 116.189C107.437 116.686 109.13 116.049 110.011 115.765C112.663 114.783 115.254 113.504 117.719 112.151C122.822 109.326 127.437 106 131.912 102.277C135.864 98.9895 138.202 96.5144 140.61 94.5762C143.965 91.9484 141.871 96.9597 141.186 98.3085C139.825 101.185 137.941 103.844 135.917 106.271C135.236 107.187 132.231 110.147 135.114 109.772C137.26 109.37 139.672 108.231 141.731 107.288C150.364 103.42 161.264 96.0386 168.841 87.6312C172.064 84.1433 175.742 81.0266 177.425 76.5871C179.148 71.4754 178.01 65.1677 174.708 60.8592C173.229 59.004 171.297 57.5023 169.5 55.9352C166.355 53.3204 166.612 52.4648 170.612 52.1374C171.672 52.0501 174.834 51.9323 178.267 50.889C182.162 49.7016 186.533 47.4492 190.838 44.961C199.671 39.858 209.019 32.0093 209.25 31.4026C209.364 31.1057 207.353 24.6845 207.218 22.4626C207.052 19.8041 208.308 19.3938 208.203 15.081C208.177 14.0464 208.073 13.1908 207.981 12.6233L207.99 12.6277Z" fill="#4F4420"/>
<path d="M180.648 34.4932C185.9 34.4932 190.157 30.2326 190.157 24.977C190.157 19.7213 185.9 15.4607 180.648 15.4607C175.396 15.4607 171.139 19.7213 171.139 24.977C171.139 30.2326 175.396 34.4932 180.648 34.4932Z" fill="#FD9E00" stroke="#231F20" stroke-miterlimit="10" stroke-linecap="round"/>
<path d="M180.975 31.9875C184.805 31.9875 187.911 28.8801 187.911 25.0468C187.911 21.2135 184.805 18.1061 180.975 18.1061C177.145 18.1061 174.039 21.2135 174.039 25.0468C174.039 28.8801 177.145 31.9875 180.975 31.9875Z" fill="#232623" stroke="#231F20" stroke-miterlimit="10" stroke-linecap="round"/>
<path d="M182.742 24.9377C183.922 24.9377 184.879 23.98 184.879 22.7987C184.879 21.6174 183.922 20.6597 182.742 20.6597C181.561 20.6597 180.604 21.6174 180.604 22.7987C180.604 23.98 181.561 24.9377 182.742 24.9377Z" fill="#E6E7E8" stroke="#231F20" stroke-miterlimit="10" stroke-linecap="round"/>
</svg>
