<svg width="563" height="195" viewBox="0 0 563 195" fill="none" xmlns="http://www.w3.org/2000/svg">
<path d="M238.576 158.71V108.31H257.44C263.824 108.31 268.84 109.846 272.488 112.918C276.184 115.942 278.032 120.166 278.032 125.59C278.032 129.142 277.192 132.214 275.512 134.806C273.88 137.35 271.528 139.318 268.456 140.71C265.384 142.054 261.712 142.726 257.44 142.726H241.528L243.904 140.278V158.71H238.576ZM272.992 158.71L260.032 140.422H265.792L278.824 158.71H272.992ZM243.904 140.71L241.528 138.19H257.296C262.336 138.19 266.152 137.086 268.744 134.878C271.384 132.67 272.704 129.574 272.704 125.59C272.704 121.558 271.384 118.438 268.744 116.23C266.152 114.022 262.336 112.918 257.296 112.918H241.528L243.904 110.398V140.71ZM290.608 158.71V108.31H325.168V112.918H295.936V158.71H290.608ZM295.36 137.326V132.718H322V137.326H295.36Z" fill="#FF851B"/>
<path d="M233.104 102.71V95.1503L264.28 57.5663L265.72 61.8143H233.68V52.3103H276.088V59.8703L244.984 97.4543L243.544 93.2064H277.168V102.71H233.104ZM308.637 103.574C304.653 103.574 300.957 102.926 297.549 101.63C294.189 100.334 291.261 98.5103 288.765 96.1583C286.317 93.8063 284.397 91.0463 283.005 87.8783C281.661 84.7103 280.989 81.2543 280.989 77.5103C280.989 73.7663 281.661 70.3103 283.005 67.1423C284.397 63.9743 286.341 61.2143 288.837 58.8623C291.333 56.5103 294.261 54.6863 297.621 53.3903C300.981 52.0943 304.629 51.4463 308.565 51.4463C312.549 51.4463 316.197 52.0943 319.509 53.3903C322.869 54.6863 325.773 56.5103 328.221 58.8623C330.717 61.2143 332.661 63.9743 334.053 67.1423C335.445 70.2623 336.141 73.7183 336.141 77.5103C336.141 81.2543 335.445 84.7343 334.053 87.9503C332.661 91.1183 330.717 93.8783 328.221 96.2303C325.773 98.5343 322.869 100.334 319.509 101.63C316.197 102.926 312.573 103.574 308.637 103.574ZM308.565 93.6383C310.821 93.6383 312.885 93.2543 314.757 92.4863C316.677 91.7183 318.357 90.6143 319.797 89.1743C321.237 87.7343 322.341 86.0303 323.109 84.0623C323.925 82.0943 324.333 79.9103 324.333 77.5103C324.333 75.1103 323.925 72.9263 323.109 70.9583C322.341 68.9903 321.237 67.2863 319.797 65.8463C318.405 64.4063 316.749 63.3023 314.829 62.5343C312.909 61.7663 310.821 61.3823 308.565 61.3823C306.309 61.3823 304.221 61.7663 302.301 62.5343C300.429 63.3023 298.773 64.4063 297.333 65.8463C295.893 67.2863 294.765 68.9903 293.949 70.9583C293.181 72.9263 292.797 75.1103 292.797 77.5103C292.797 79.8623 293.181 82.0463 293.949 84.0623C294.765 86.0303 295.869 87.7343 297.261 89.1743C298.701 90.6143 300.381 91.7183 302.301 92.4863C304.221 93.2543 306.309 93.6383 308.565 93.6383ZM344.907 102.71V52.3103H366.435C373.443 52.3103 378.891 53.9423 382.779 57.2063C386.667 60.4223 388.611 64.8863 388.611 70.5983C388.611 74.3423 387.723 77.5823 385.947 80.3183C384.171 83.0063 381.651 85.0703 378.387 86.5103C375.123 87.9503 371.235 88.6703 366.723 88.6703H351.387L356.571 83.5583V102.71H344.907ZM376.947 102.71L364.347 84.4223H376.803L389.547 102.71H376.947ZM356.571 84.8543L351.387 79.3823H366.075C369.675 79.3823 372.363 78.6143 374.139 77.0783C375.915 75.4943 376.803 73.3343 376.803 70.5983C376.803 67.8143 375.915 65.6543 374.139 64.1183C372.363 62.5823 369.675 61.8143 366.075 61.8143H351.387L356.571 56.2703V84.8543ZM394.612 102.71V95.1503L425.788 57.5663L427.228 61.8143H395.188V52.3103H437.596V59.8703L406.492 97.4543L405.052 93.2064H438.676V102.71H394.612ZM439.533 102.71L461.997 52.3103H473.517L496.053 102.71H483.813L465.381 58.2143H469.989L451.485 102.71H439.533ZM450.765 91.9103L453.861 83.0543H479.781L482.949 91.9103H450.765ZM501.282 102.71V52.3103H512.946V93.2064H538.218V102.71H501.282Z" fill="#333333"/>
<path d="M215.334 112.762C217.131 108.471 217.89 103.529 218.392 98.9022C219.112 93.2841 219.325 87.1161 219.029 81.367C218.675 76.2554 217.851 71.6369 216.909 66.7479C215.805 61.0949 214.942 55.2149 213.498 49.7409C211.832 43.7867 211.644 37.1909 211.247 31.0403C210.689 23.7154 197.014 27.9322 193.123 29.1676C182.942 32.4284 170.244 40.2771 164.474 53.9403C157.555 71.1917 161.403 92.1055 179.418 104.167C184.866 107.929 190.855 110.518 196.351 112.164C204.342 114.429 213.925 115.835 215.321 112.801L215.343 112.762H215.334Z" fill="#F3E8C2"/>
<path d="M145.503 156.903L153.695 156.79L171.505 188.163L189.939 188.219L191.073 188.673L192.098 189.359L192.953 189.983L194.148 191.065L195.116 192.432L195.57 193.514L195.684 194.654H162.458L162.685 190.725L163.592 189.529L164.618 188.39L164.901 187.818L164.221 186.622L145.503 156.903Z" fill="#252727"/>
<path d="M112.104 150.071L121.835 153.145L137.482 188.163L151.702 188.446L153.124 189.586L155.344 191.179L156.653 192.942L157.337 194.654L114.21 194.536L114.324 193.401L115.746 191.917L117.395 190.38L119.728 188.843L120.753 188.503L124.396 188.219L131.279 188.106L112.104 150.071Z" fill="#242524"/>
<path d="M176.12 68.7253C179.758 70.5631 182.558 74.0858 185.389 77.0105C193.328 86.1601 198.235 97.191 206.645 106.018C208.024 107.497 209.236 108.807 210.898 109.676C214.375 111.444 217.009 110.522 214.671 115.547C213.219 118.904 211.893 121.676 210.606 124.234C209.76 125.801 209.747 126.181 208.447 127.914C206.554 130.367 204.975 133.213 202.667 135.278C200.028 137.652 197.498 140.416 194.711 142.48C192.46 144.034 189.834 146.256 187.343 147.544C184.382 149.203 181.525 150.534 178.209 151.717C175.047 153.044 172.076 153.874 168.74 154.707C155.889 157.872 139.737 157.484 127.541 154.45C115.585 151.669 105.814 147.461 93.984 145.296C85.2557 143.641 75.559 143.192 66.9266 143.17C54.2507 140.529 153.355 75.3561 174.964 68.3456C175.352 68.315 175.549 68.4634 176.072 68.6904L176.12 68.7122V68.7253Z" fill="#F57A01"/>
<path d="M0.628882 184.496C6.80108 184.291 13.8195 183.548 18.8052 179.69C31.4375 170.191 55.1929 152.682 69.5394 141.751C73.0552 139.15 76.7629 135.474 80.8064 133.732C89.9099 130.694 99.5804 128.402 107.506 125.81C116.618 123.016 125.97 119.995 134.825 116.416C144.897 112.334 152.269 108.929 160.596 102.984C164.875 99.6312 168.181 95.7461 171.592 90.9269C174.811 86.3521 176.931 81.5635 177.211 76.0546C177.237 71.6369 175.64 75.5875 174.236 78.0407C167.85 88.8098 157.708 96.3922 148.068 102.368C143.091 105.328 135.17 110.038 133.525 109.222C133.373 109.016 133.469 108.584 133.783 107.956C134.241 107.022 135.083 105.825 135.759 104.861C137.547 102.381 139.353 100.015 140.592 97.1823C141.303 95.5366 141.896 93.7119 140.819 94.0568C139.379 94.7989 137.708 96.8418 136.295 98.1819C134.55 99.9368 132.705 101.587 130.799 103.093C124.4 108.06 117.146 112.221 109.517 115.071C104.854 116.717 108.78 112.928 110.101 111.71C112.056 109.898 114.171 108.161 116.09 105.62C118.088 103.04 119.68 99.5832 120.544 96.8462C120.828 95.8858 122.141 92.0401 120.448 92.7516C119.318 93.306 116.98 95.96 115.423 97.3002C110.023 102.172 103.576 106.908 97.4735 111.19C85.4694 119.48 77.0289 124.81 63.4327 131.406C61.714 132.231 59.8733 133.082 58.0849 133.881C55.7207 135.025 53.7709 135.575 51.9258 137.133C37.1866 150.482 14.4825 170.998 0.240666 183.928C0.157788 184.011 0.0967169 184.081 0.0530971 184.146C-0.00360859 184.234 -0.0166911 184.299 0.0225667 184.356C0.0792725 184.435 0.262473 184.483 0.572174 184.5H0.61143L0.628882 184.496Z" fill="#222523"/>
<path d="M135.815 110.985C132.688 112.29 129.159 112.002 125.8 112.461C119.105 113.373 113.028 117.275 106.289 117.764C104.618 117.887 102.865 117.773 101.412 116.939C100.174 116.228 99.2751 115.062 98.4594 113.892C96.5357 111.112 94.8869 108.004 94.6296 104.629C94.2544 99.6617 97.0287 94.8556 100.841 91.6515C104.653 88.4475 109.399 86.5966 114.119 85.012C118.969 83.3838 123.942 81.9695 129.046 81.6726C134.149 81.3758 139.44 82.2619 143.785 84.964C144.98 85.7061 146.131 86.6228 146.764 87.8756C147.348 89.0324 147.444 90.3682 147.471 91.6646C147.549 96.1434 146.829 100.801 144.679 104.778C143.876 106.266 143.109 107.008 141.63 107.742C139.641 108.728 137.861 110.134 135.811 110.99L135.815 110.985Z" fill="#222523"/>
<path d="M51.6248 137.543L58.5647 128.32L65.9626 131.964L54.2419 140.961L51.6248 137.543Z" fill="#222523"/>
<path d="M234.876 15.5742C235.007 15.3298 235.116 15.0853 235.159 14.8409C235.212 14.5353 235.199 14.2865 235.142 14.0551C233.476 14.2079 230.209 15.3865 229 15.775C223.988 17.4557 217.956 19.1756 213.145 21.1268C211.692 21.7336 210.091 22.2443 208.569 22.6459C207.195 23.0039 205.69 23.5102 205.568 25.0643C205.385 26.352 206.096 28.3818 206.584 29.8136C206.776 30.3375 206.99 30.9049 207.308 31.324L207.334 31.3589C207.915 32.0792 208.63 31.551 210.03 30.7129C211.156 30.0275 212.255 29.3596 213.406 28.6568C219.779 24.7761 227.753 19.9264 234.248 15.9671C234.44 15.8361 234.658 15.7052 234.876 15.5742Z" fill="#F77800"/>
<path d="M235.173 14.1905C235.129 13.9111 235.024 13.671 234.885 13.4178C234.619 13.2083 234.274 13.0249 233.999 12.942C230.902 12.7412 226.715 12.9289 222.802 12.8678H213.158C210.13 12.8722 207.801 12.8547 207.081 12.8765C206.92 12.894 206.82 12.942 206.741 13.1035L206.728 13.1341C206.362 14.3913 206.17 16.0981 205.899 17.4469C205.472 19.5553 205.747 21.6026 205.917 23.6848C205.991 24.0864 206.126 24.0559 206.401 23.9686C209.563 22.8947 231.77 15.3734 234.937 14.2952C235.042 14.2647 235.12 14.2297 235.177 14.1861L235.173 14.1905Z" fill="#F9970B"/>
<path d="M200.272 87.6312C202.017 86.6141 201.921 81.7949 201.686 79.8872C201.572 78.4424 200.608 75.8625 199.509 78.2023C198.911 79.4333 198.637 82.0218 198.767 83.7374C198.938 85.8938 199.326 87.6181 200.242 87.6399L200.272 87.6312Z" fill="#514424"/>
<path d="M211.238 95.3838C211.976 94.9648 212.32 93.6464 212.63 92.6861C212.9 91.7825 212.892 90.9531 212.931 89.9927C212.957 88.0459 213.262 86.0859 212.848 84.1521C212.019 80.3761 210.375 84.2088 210.209 85.8589C209.921 87.701 210.139 89.482 210.266 91.3896C210.41 92.5159 210.466 95.4275 211.208 95.3882L211.238 95.3794V95.3838Z" fill="#504721"/>
<path d="M207.404 75.1379C207.862 75.0855 208.085 74.1033 208.316 73.0862C209.428 68.1491 207.025 62.7973 205.925 62.9501C205.406 63.0243 205.206 64.3252 205.014 65.5693C204.281 70.3274 206.336 75.2601 207.404 75.1335V75.1379Z" fill="#52431E"/>
<path d="M191.034 69.5242C189.869 67.4376 190.593 63.0636 191.679 60.8286C193.712 57.0876 194.785 60.5711 194.475 63.4914C194.34 65.1327 193.899 66.953 193.219 68.3499C192.848 69.2491 191.723 70.5325 191.064 69.5678L191.034 69.5285V69.5242Z" fill="#4F4121"/>
<path d="M206.99 12.6277C206.191 10.934 204.425 9.75974 202.977 8.62915C201.472 7.53784 199.871 6.56876 198.235 5.68261C183.418 -2.703 164.068 -2.3887 151.396 10.5411C149.202 12.7063 147.322 15.1726 145.765 17.8049C143.069 22.3796 141.359 27.8056 138.925 32.5375C136.361 38.0072 132.736 42.8657 127.903 46.5019C122.455 51.2513 117.325 55.9003 111.981 60.7501C91.4234 78.9138 75.5458 100.932 60.6497 123.286C58.364 126.765 56.074 130.153 53.8973 133.776C52.3183 136.487 55.4066 135.155 56.7021 134.623C58.8002 133.767 60.8852 132.79 63.0008 131.816C66.7652 130.074 70.342 128.595 73.8272 126.451C81.6788 121.728 88.6667 117.917 95.768 112.587C99.4451 109.92 102.996 107.62 106.106 104.878C110.084 101.08 113.683 96.7196 118.306 93.5897C120.64 92.075 121.464 93.2012 120.71 95.5933C119.532 99.4522 116.911 103.857 114.215 107.209C112.439 109.453 110.158 111.671 108.073 113.657C107.51 114.198 107.009 114.687 106.625 115.088C106.11 115.625 105.809 115.988 105.914 116.189C106.437 116.686 108.13 116.049 109.011 115.765C111.663 114.783 114.254 113.504 116.719 112.151C121.822 109.326 126.437 106 130.912 102.277C134.864 98.9895 137.202 96.5144 139.61 94.5762C142.965 91.9484 140.871 96.9597 140.186 98.3085C138.825 101.185 136.941 103.844 134.917 106.271C134.236 107.187 131.231 110.147 134.114 109.772C136.26 109.37 138.672 108.231 140.731 107.288C149.364 103.42 160.264 96.0386 167.841 87.6312C171.064 84.1433 174.742 81.0266 176.425 76.5871C178.148 71.4754 177.01 65.1677 173.708 60.8592C172.229 59.004 170.297 57.5023 168.5 55.9352C165.355 53.3204 165.612 52.4648 169.612 52.1374C170.672 52.0501 173.834 51.9323 177.267 50.889C181.162 49.7016 185.533 47.4492 189.838 44.961C198.671 39.858 208.019 32.0093 208.25 31.4026C208.364 31.1057 206.353 24.6845 206.218 22.4626C206.052 19.8041 207.308 19.3938 207.203 15.081C207.177 14.0464 207.073 13.1908 206.981 12.6233L206.99 12.6277Z" fill="#4F4420"/>
<path d="M180.648 34.4932C185.9 34.4932 190.157 30.2326 190.157 24.977C190.157 19.7213 185.9 15.4607 180.648 15.4607C175.396 15.4607 171.139 19.7213 171.139 24.977C171.139 30.2326 175.396 34.4932 180.648 34.4932Z" fill="#FD9E00" stroke="#231F20" stroke-miterlimit="10" stroke-linecap="round"/>
<path d="M180.975 31.9875C184.805 31.9875 187.911 28.8801 187.911 25.0468C187.911 21.2135 184.805 18.1061 180.975 18.1061C177.145 18.1061 174.039 21.2135 174.039 25.0468C174.039 28.8801 177.145 31.9875 180.975 31.9875Z" fill="#232623" stroke="#231F20" stroke-miterlimit="10" stroke-linecap="round"/>
<path d="M182.742 24.9377C183.922 24.9377 184.879 23.98 184.879 22.7987C184.879 21.6174 183.922 20.6597 182.742 20.6597C181.561 20.6597 180.604 21.6174 180.604 22.7987C180.604 23.98 181.561 24.9377 182.742 24.9377Z" fill="#E6E7E8" stroke="#231F20" stroke-miterlimit="10" stroke-linecap="round"/>
</svg>
